<svg width="370" height="275" viewBox="0 0 370 275" fill="none" xmlns="http://www.w3.org/2000/svg">
<rect width="370" height="275" rx="15" fill="#F8F8F8" style="fill:#F8F8F8;fill:color(display-p3 0.9733 0.9733 0.9733);fill-opacity:1;"/>
<path d="M136 105.571C136 98.6375 141.549 93 148.375 93H222.625C229.451 93 235 98.6375 235 105.571V168.429C235 175.362 229.451 181 222.625 181H148.375C141.549 181 136 175.362 136 168.429V105.571ZM198.61 126.491C197.74 125.195 196.309 124.429 194.781 124.429C193.254 124.429 191.804 125.195 190.953 126.491L174.13 151.555L169.006 145.054C168.117 143.934 166.783 143.286 165.391 143.286C163.998 143.286 162.645 143.934 161.775 145.054L149.4 160.768C148.278 162.182 148.066 164.127 148.839 165.757C149.613 167.387 151.237 168.429 153.016 168.429H217.984C219.705 168.429 221.291 167.466 222.084 165.914C222.876 164.363 222.78 162.496 221.813 161.062L198.61 126.491ZM157.656 124.429C160.118 124.429 162.479 123.435 164.219 121.667C165.96 119.899 166.938 117.501 166.938 115C166.938 112.499 165.96 110.101 164.219 108.333C162.479 106.565 160.118 105.571 157.656 105.571C155.195 105.571 152.834 106.565 151.093 108.333C149.353 110.101 148.375 112.499 148.375 115C148.375 117.501 149.353 119.899 151.093 121.667C152.834 123.435 155.195 124.429 157.656 124.429Z" fill="#E7E7E7" style="fill:#E7E7E7;fill:color(display-p3 0.9059 0.9059 0.9059);fill-opacity:1;"/>
</svg>
